PathFileType	4	(X/Y/Z)	pose_F01_0-96.trc
DataRate	CameraRate	NumFrames	NumMarkers	Units	OrigDataRate	OrigDataStartFrame	OrigNumFrames
30	30	7	21	m	30	72	96
Frame#	Time	CHip			RHip			RKnee			RAnkle			RBigToe			RSmallToe			RHeel			LHip			LKnee			LAnkle			LBigToe			LSmallToe			LHeel			Neck			Nose			RShoulder			RElbow			RWrist			LShoulder			LElbow			LWrist			
		X1	Y1	Z1	X2	Y2	Z2	X3	Y3	Z3	X4	Y4	Z4	X5	Y5	Z5	X6	Y6	Z6	X7	Y7	Z7	X8	Y8	Z8	X9	Y9	Z9	X10	Y10	Z10	X11	Y11	Z11	X12	Y12	Z12	X13	Y13	Z13	X14	Y14	Z14	X15	Y15	Z15	X16	Y16	Z16	X17	Y17	Z17	X18	Y18	Z18	X19	Y19	Z19	X20	Y20	Z20	X21	Y21	Z21	
72	2.4	-0.16678962952462215	1.8874143056279358	-0.6076040797752776	-0.17711378419967655	1.8831963931522095	-0.5446588299520678	-0.16931843697291238	1.7487454887393716	-0.5349076932226696	-0.16745333548349922	1.6111743626652115	-0.514835408458154	-0.19819509059237878	1.5720637618200888	-0.47252133352317816	-0.19364713636072073	1.578699830232844	-0.4510201530616431	-0.16379781957968356	1.5980752036813684	-0.5258279599900393	-0.1511692061484882	1.8895523110968515	-0.6742163292113812	-0.14696304172803126	1.7496626772718404	-0.6662957785194328	-0.1437423250572004	1.610083400211774	-0.6567073855706276	-0.16835999965544468	1.5673777128391222	-0.6514268957520656	-0.15693260117160143	1.5726230535684769	-0.6803364349225364	-0.1394298488033173	1.598117705217275	-0.6469326650895442	-0.15751827368291915	2.045290256725147	-0.6242235956392017	-0.17783135507894726	2.1110064520838887	-0.6145709051599755	-0.17470383107539814	2.039814027674849	-0.5305283101978834	-0.19211666112087308	1.9716003612662913	-0.4280178816718335	-0.21802296348245326	1.9183841428553843	-0.297984404601529	-0.1355135679547403	2.0532113420693254	-0.7194209152961196	-0.11107656621000749	1.9869695707743982	-0.8117526922097096	-0.10256649337514807	1.9295156655090842	-0.8961399867008775
73	2.433333333333333	-0.16704062016298707	1.884961490836401	-0.6071403447674999	-0.17834902217675216	1.881820245265768	-0.5391235816239832	-0.16951435385360103	1.7476237395731509	-0.5345307003451018	-0.16724714151559475	1.6099697200116008	-0.5149754972088414	-0.1973443609427826	1.572756851813559	-0.4692495465649355	-0.19321053302658758	1.5795848928009089	-0.4470287140527318	-0.1637489442149845	1.5980522526797998	-0.5258323425390823	-0.15136062873900416	1.8896960550934971	-0.6742253203107386	-0.14522213912972115	1.7473550008544056	-0.6678494669980027	-0.14404133696581348	1.60886141916249	-0.6561406217034879	-0.1721502131610138	1.5660574236576101	-0.6431322505732354	-0.15962796729344236	1.5717021022984468	-0.6772906931650963	-0.13967440719713528	1.5968808654177546	-0.6464174834208825	-0.157529851723988	2.0453120154910063	-0.6241629240977409	-0.177815154989751	2.11097902747731	-0.6145828466581438	-0.17483006720521818	2.040065877662788	-0.5310077814054324	-0.1951573111405777	1.9760230658377498	-0.4216476803739006	-0.2232910889924411	1.933955227473745	-0.2716816400160758	-0.13547164936411404	2.0532913364113496	-0.7193829751430648	-0.11369439304633204	1.99438339235398	-0.8132342546182653	-0.09726951829213351	1.9531615908236397	-0.9181206736706302
74	2.466666666666667	-0.1670111673834845	1.8836823435681123	-0.6069128349267986	-0.1793825845126472	1.8808417432347997	-0.5420541706240446	-0.17207344710593642	1.746474041859543	-0.5316588425042753	-0.16771782020767637	1.6099581933081126	-0.5142550977455957	-0.20078431179032452	1.5725831400797352	-0.4696006403339698	-0.19428885653409667	1.5796142818415473	-0.45023860345563654	-0.16398428520992325	1.5992324751650646	-0.5255637615492655	-0.15340350578746212	1.8883031766329426	-0.6717426838833769	-0.14542781998086973	1.746013800903246	-0.6675246665168261	-0.14393927388715277	1.60854265239164	-0.6562132785176652	-0.16781169533941784	1.5661137426739071	-0.6476498090191987	-0.1570439458530896	1.5727234518184499	-0.6802310013029833	-0.13910244393106042	1.5963337691593875	-0.6471115475609842	-0.15754917314184508	2.046634206417437	-0.6246229619636804	-0.177785682796864	2.1110141781262723	-0.6145827798828	-0.17486415339435796	2.0401275457336205	-0.5310470628284306	-0.19502407615524042	1.9792284464589533	-0.4221057783510893	-0.2263998408879456	1.9423487713989058	-0.26083010794634703	-0.13472281537260666	2.053175302123699	-0.7164300112971308	-0.11218982611965583	1.995976749447128	-0.8187664700643382	-0.09499352180158209	1.9623963050403495	-0.9240268888573155
75	2.5	-0.16708370863340646	1.8849982276132273	-0.6071732186742793	-0.17936862030811607	1.8808451847888221	-0.5420464200466495	-0.17171864808264944	1.7461846892034767	-0.5319000919202153	-0.16723499514556497	1.6098389823645736	-0.5149895141960841	-0.1984613625917511	1.5737008986300591	-0.4723222860956031	-0.19388714715484268	1.5802740565691447	-0.4507905857772975	-0.16374538466886404	1.5980174020063673	-0.5258306412724706	-0.15155505546903272	1.8886632238071892	-0.6740891304372983	-0.14524264811620366	1.747286811749921	-0.667835463564071	-0.14403171864172015	1.6088033126166719	-0.6561626213598489	-0.17008263913733063	1.5664573608831882	-0.645332532994277	-0.1584594664663237	1.5731088914627562	-0.6747729923041899	-0.13856327908828595	1.5951423830065863	-0.6434089247049585	-0.1575673522015624	2.0453132445433715	-0.6241106871834795	-0.17779532189324837	2.1110110201613392	-0.6145541900746966	-0.1748496591981841	2.0400339535210725	-0.5310089820959109	-0.19589500917815322	1.9735414586694722	-0.4151314792648474	-0.23113477323717244	1.9397856743407769	-0.25936973535250635	-0.1376093666780155	2.0533173284591695	-0.7170618097803754	-0.1137125055019895	1.9981928459179026	-0.8136361070416844	-0.09855613060011964	1.964581075223278	-0.9138623914720218
76	2.533333333333333	-0.16710058441489917	1.8849549189159696	-0.6071589148068285	-0.17924258145461278	1.88189953918529	-0.5422062261738769	-0.17211522203154964	1.7464404552859039	-0.5316693336526874	-0.1675157546929206	1.6086034546819767	-0.5144255450387745	-0.1987241815845525	1.5750569610103424	-0.472411762098345	-0.19408420382091357	1.5812673874552692	-0.4508828248883979	-0.16380532140178045	1.5980594069306477	-0.5257326887029293	-0.15357932836500943	1.8870941916004633	-0.6716174204819976	-0.14542814897965184	1.746051322002536	-0.6675168638288483	-0.14374489502148335	1.6100223841540124	-0.656678654426715	-0.16995773936002254	1.5660759482548674	-0.645353070738624	-0.1583652891918349	1.572682289896847	-0.6747489843704743	-0.13853214671613714	1.597916572380554	-0.6437923555995384	-0.15753999795320128	2.046643239177737	-0.6246601321952717	-0.1778077367436682	2.1110375429729684	-0.6145497000097462	-0.1747963647003683	2.0401257426218202	-0.5311458862789815	-0.1969591974038813	1.9757722982010033	-0.4277332434300241	-0.22711000602583037	1.9357143726785784	-0.2766493660724977	-0.13759942053739743	2.0532010685125504	-0.7171208674182641	-0.11603252330568613	1.9956630005891818	-0.8109989773574791	-0.10200455582989884	1.9569192397631037	-0.9133423160604939
77	2.566666666666667	-0.1661533747964788	1.8835220392341885	-0.6037527818673237	-0.17851313104614383	1.8807392340034823	-0.5389581052461054	-0.16990714954791178	1.7477409994100122	-0.5343627879235577	-0.16744971886340845	1.6112384384854392	-0.5148671099400954	-0.1974331803242499	1.5734131333573116	-0.4693379951797936	-0.19112154887651003	1.5812298592938943	-0.44973480952264017	-0.16376879790934126	1.5981126986044187	-0.5259174055419477	-0.1526119472218147	1.8881254882750762	-0.6687001076062191	-0.14736314871413833	1.7472030070598616	-0.6654811088046447	-0.1461749445682129	1.6085527272200129	-0.6539469626973988	-0.16989925428601296	1.5659672978970491	-0.6454261047790313	-0.15703048994579735	1.572777660178392	-0.6802064498234637	-0.14171847622943137	1.596066722011838	-0.6441460997708787	-0.15752769065459415	2.04529089950785	-0.6242046114995119	-0.1778069503800045	2.1110217807478344	-0.6145185023110753	-0.1748156787469934	2.0387761224529575	-0.5305999030461268	-1.996652206389416	1.9036413449529053	1.6338410257303215	-0.22615396023109174	1.9273662185005715	-0.2945234548241478	-0.13755932153987752	2.053304459207957	-0.7171415189494011	-0.11780280573234315	1.9919632455551857	-0.8052830483906832	-0.10519825654240622	1.948755805892368	-0.8989045379009184
78	2.6	-0.16697490150719688	1.8835988670067316	-0.6069526143950174	-0.17718140635436938	1.8805838678457873	-0.544143728622825	-0.16955796169128368	1.747524875203456	-0.5345961643641506	-0.16742901550415726	1.6112651193918726	-0.5148618591287228	-0.19759951178528667	1.5746181065597242	-0.47796415258492814	-0.19215608972616072	1.5815489290111768	-0.4532047158408553	-0.16370430034245984	1.600733781292058	-0.5261865332268904	-0.15131538444583476	1.8882480913384512	-0.6739916640084158	-0.1471492830282134	1.745901697433772	-0.6655209539643782	-0.1439555009965944	1.6086629295281178	-0.6561861597172861	-0.16997484731212903	1.5661071927356895	-0.645353727330938	-0.15916996499311112	1.572577033668777	-0.6779305327705218	-0.1385766447253755	1.595765228960623	-0.6432115618549197	-0.15752288228585226	2.0452723080896034	-0.6241813849492978	-0.17781059737944596	2.1110489623502504	-0.614570313933594	-0.17484627185424748	2.040086137226723	-0.531108823084366	-0.19328535835917177	1.9701577525964433	-0.43988674335213457	-0.21960750535349302	1.9143190417729217	-0.31805816880070376	-0.13480718875696798	2.0519137896776054	-0.7165370181490255	-0.11739264518206116	1.9854185990628943	-0.8015921209412198	-0.11516578263781183	1.9327472651761604	-0.8736447543433034
